<svg width="350" height="260" viewBox="0 0 350 260" xmlns="http://www.w3.org/2000/svg">
        <rect x="0" y="0" width="350" height="260" fill="#f8f8f8"/>
        
        <!-- Grid -->
        <line x1="50" y1="30" x2="50" y2="210" stroke="#ddd" stroke-width="1"/>
        <line x1="50" y1="210" x2="320" y2="210" stroke="#ddd" stroke-width="1"/>
        
        <!-- Size 26 - SOLD OUT -->
        <rect x="70" y="170" width="30" height="40" fill="#ff6b6b" opacity="0.3"/>
        <text x="85" y="165" font-size="12" text-anchor="middle">26</text>
        <text x="85" y="230" font-size="10" text-anchor="middle">SOLD</text>
        
        <!-- Size 28 - Low Stock -->
        <rect x="110" y="150" width="30" height="60" fill="#ffd93d"/>
        <text x="125" y="145" font-size="12" text-anchor="middle">28</text>
        <text x="125" y="230" font-size="10" text-anchor="middle">3 left</text>
        
        <!-- Size 30 - Available -->
        <rect x="150" y="130" width="30" height="80" fill="#6bcf7f"/>
        <text x="165" y="125" font-size="12" text-anchor="middle">30</text>
        <text x="165" y="230" font-size="10" text-anchor="middle">8 left</text>
        
        <!-- Size 32 - Available -->
        <rect x="190" y="110" width="30" height="100" fill="#6bcf7f"/>
        <text x="205" y="105" font-size="12" text-anchor="middle">32</text>
        <text x="205" y="230" font-size="10" text-anchor="middle">12 left</text>
        
        <!-- Size 34 - Low Stock -->
        <rect x="230" y="140" width="30" height="70" fill="#ffd93d"/>
        <text x="245" y="135" font-size="12" text-anchor="middle">34</text>
        <text x="245" y="230" font-size="10" text-anchor="middle">5 left</text>
        
        <!-- Size 36 - SOLD OUT -->
        <rect x="270" y="170" width="30" height="40" fill="#ff6b6b" opacity="0.3"/>
        <text x="285" y="165" font-size="12" text-anchor="middle">36</text>
        <text x="285" y="230" font-size="10" text-anchor="middle">SOLD</text>
    </svg>